PathFileType	4	(X/Y/Z)	/Users/itak/Documents/Research/Walk-IL/dataset/trc/00170_00008.trc
DataRate	CameraRate	NumFrames	NumMarkers	Units	OrigDataRate	OrigDataStartFrame	OrigNumFrames
100.000000	100.000000	4	53	mm	100.000000	432	577
Frame#	Time	RPSI			LPSI			L3			STRN			T10			C7			CLAV			RBAK			LBAK			LSHO			LUPA			LAEL			LAOL			LWTS			LWPS			LFRA			LIFD			LHPS			LHTS			RSHO			RUPA			RAEL			RAOL			RWTS			RWPS			RFRA			RIFD			RHTS			RHPS			RBHD			LFHD			RFHD			LBHD			LHIP			RHIP			RASI			LASI			LKNE			LTHI			LANK			LTIP			LTOE			LMT1			LMT5			LHEE			RKNE			RTHI			RANK			RTIP			RTOE			RMT1			RMT5			RHEE			
		X1	Y1	Z1	X2	Y2	Z2	X3	Y3	Z3	X4	Y4	Z4	X5	Y5	Z5	X6	Y6	Z6	X7	Y7	Z7	X8	Y8	Z8	X9	Y9	Z9	X10	Y10	Z10	X11	Y11	Z11	X12	Y12	Z12	X13	Y13	Z13	X14	Y14	Z14	X15	Y15	Z15	X16	Y16	Z16	X17	Y17	Z17	X18	Y18	Z18	X19	Y19	Z19	X20	Y20	Z20	X21	Y21	Z21	X22	Y22	Z22	X23	Y23	Z23	X24	Y24	Z24	X25	Y25	Z25	X26	Y26	Z26	X27	Y27	Z27	X28	Y28	Z28	X29	Y29	Z29	X30	Y30	Z30	X31	Y31	Z31	X32	Y32	Z32	X33	Y33	Z33	X34	Y34	Z34	X35	Y35	Z35	X36	Y36	Z36	X37	Y37	Z37	X38	Y38	Z38	X39	Y39	Z39	X40	Y40	Z40	X41	Y41	Z41	X42	Y42	Z42	X43	Y43	Z43	X44	Y44	Z44	X45	Y45	Z45	X46	Y46	Z46	X47	Y47	Z47	X48	Y48	Z48	X49	Y49	Z49	X50	Y50	Z50	X51	Y51	Z51	X52	Y52	Z52	X53	Y53	Z53	

433	4.32	-879.1322021484375	1059.73974609375	328.0372314453125	-888.30810546875	1061.86865234375	206.6850128173828	-878.2041625976562	1101.74169921875	270.4598083496094	-602.931884765625	1290.245849609375	239.1137084960938	-895.9075927734375	1260.44140625	262.0617370605469	-815.8358764648438	1523.6689453125	228.9523162841797	-624.7776489257812	1404.897827148438	223.7418975830078	-883.9962768554688	1359.5126953125	352.8088684082031	-832.9367065429688	1492.289306640625	130.2434997558594	-765.0048828125	1468.51806640625	46.61535263061523	-811.1546020507812	1332.093505859375	-10.37753963470459	-807.5589599609375	1113.997436523438	-6.003293514251709	-838.29931640625	1105.842163085938	76.99685668945312	-691.4955444335938	885.7169799804688	17.07395935058594	-780.420166015625	860.0592041015625	3.265392780303955	-797.8014526367188	1002.189575195312	-11.2603645324707	-664.0994262695312	705.4788818359375	51.76915740966797	-755.7066650390625	791.0360717773438	7.792137145996094	-684.201171875	805.5347290039062	1.609776973724365	-741.6224365234375	1507.859008789062	405.9515686035156	-759.8414916992188	1445.488647460938	479.7313232421875	-783.44384765625	1160.885986328125	554.7774658203125	-791.8422241210938	1146.7568359375	456.8928527832031	-623.8578491210938	947.8836669921875	539.2222290039062	-694.21044921875	923.3064575195312	587.912353515625	-753.4012451171875	1089.677734375	575.3990478515625	-589.6759643554688	765.007080078125	515.5177001953125	-586.0916748046875	858.6307983398438	549.8290405273438	-658.17578125	843.8358154296875	586.5640869140625	-751.5764770507812	1680.43896484375	291.0364685058594	-611.7368774414062	1725.89501953125	130.5802764892578	-589.3621215820312	1734.634033203125	258.39990234375	-782.7178344726562	1678.603637695312	156.408203125	-792.4680786132812	1002.408264160156	80.89980316162109	-727.6359252929688	1003.131713867188	448.7806701660156	-649.171875	1032.596801757812	390.1629028320312	-666.3531494140625	1034.500122070312	132.9024047851562	-584.8783569335938	528.9647216796875	92.87360382080078	-645.0773315429688	663.1527099609375	66.6260986328125	-589.8678588867188	46.55508422851562	100.3102188110352	-588.49072265625	294.26953125	81.55697631835938	-380.5025024414062	96.94730377197266	82.33956146240234	-417.3025512695312	90.55347442626953	139.0691680908203	-490.3202819824219	51.78315353393555	44.36041259765625	-626.77587890625	46.51350021362305	178.3654174804688	-745.338134765625	501.4302978515625	392.2182922363281	-687.8931884765625	766.8578491210938	438.730224609375	-911.654052734375	36.33672332763672	358.8218688964844	-750.852783203125	378.1649780273438	369.1771240234375	-689.6658935546875	52.87754440307617	350.3442993164062	-736.017333984375	41.58364105224609	301.1368408203125	-804.4786987304688	37.45893859863281	406.8339538574219	-954.778076171875	36.07880020141602	283.3604431152344	
434	4.33	-882.7743530273438	1060.386474609375	328.5480346679688	-892.0094604492188	1062.599731445312	207.2041015625	-881.9485473632812	1102.398803710938	271.1156311035156	-607.3964233398438	1291.768432617188	239.4067840576172	-900.2249145507812	1260.939086914062	262.8591613769531	-821.0888061523438	1524.466064453125	229.6155548095703	-629.671142578125	1406.318603515625	224.0617065429688	-888.6336059570312	1360.086547851562	353.5079956054688	-838.2888793945312	1493.026489257812	130.9788055419922	-770.5094604492188	1469.6494140625	47.14600372314453	-816.4824829101562	1333.078125	-9.776885986328125	-812.4152221679688	1114.962646484375	-4.83621072769165	-842.640869140625	1106.876708984375	78.33043670654297	-695.965087890625	886.810546875	17.04405403137207	-785.1770629882812	861.0192260742188	5.076398372650146	-802.723388671875	1003.132385253906	-9.906865119934082	-668.0953979492188	706.5906372070312	52.05696868896484	-760.4284057617188	792.0018920898438	9.569256782531738	-689.178955078125	806.3950805664062	1.782509684562683	-746.610107421875	1508.831420898438	406.4702758789062	-764.8648071289062	1446.5302734375	480.2381896972656	-789.7584228515625	1161.997192382812	554.798583984375	-797.6634521484375	1147.969116210938	456.8042602539062	-632.0343017578125	947.5005493164062	540.2691650390625	-702.9579467773438	923.6663208007812	588.5790405273438	-760.40087890625	1090.62744140625	575.6111450195312	-599.6978149414062	764.2206420898438	516.6822509765625	-595.337158203125	857.76806640625	551.0551147460938	-667.7631225585938	843.7478637695312	587.4163208007812	-756.69921875	1681.722412109375	291.5591735839844	-616.4456787109375	1726.946899414062	131.4192047119141	-594.2020263671875	1735.379028320312	259.2669067382812	-787.5899658203125	1680.204467773438	156.8569946289062	-796.0411376953125	1003.622985839844	81.58332824707031	-731.3502807617188	1003.639587402344	449.2767333984375	-652.9263305664062	1033.46533203125	390.669677734375	-669.849609375	1036.073974609375	133.4622497558594	-587.7691040039062	530.0962524414062	92.60457611083984	-647.649658203125	664.757568359375	66.8812255859375	-601.8650512695312	47.54415512084961	99.7357177734375	-595.7540893554688	295.1943969726562	81.11286163330078	-391.7203674316406	95.04819488525391	82.736572265625	-428.809814453125	88.94810485839844	139.2680511474609	-501.953857421875	51.42915725708008	44.21564865112305	-639.1446533203125	48.02761077880859	177.6002197265625	-747.8971557617188	502.1767578125	392.2151794433594	-691.2684936523438	767.5136108398438	438.9225158691406	-911.790771484375	36.27920913696289	358.8018798828125	-752.8276977539062	378.8855590820312	369.1980895996094	-689.9332275390625	53.2683219909668	350.3797912597656	-736.2523193359375	41.75936126708984	301.1121826171875	-804.6650390625	37.59088516235352	406.7597045898438	-954.972412109375	35.94136047363281	283.3395385742188	
435	4.34	-886.323974609375	1061.046142578125	328.7538452148438	-895.4462280273438	1063.344360351562	207.3938598632812	-885.51806640625	1103.061645507812	271.4832763671875	-611.6723022460938	1293.204711914062	239.7217712402344	-904.3883666992188	1261.334106445312	263.5567932128906	-826.1829223632812	1525.17724609375	230.2672424316406	-634.40966796875	1407.636352539062	224.3851776123047	-893.1109008789062	1360.555053710938	354.170166015625	-843.4939575195312	1493.665283203125	131.7029876708984	-775.8732299804688	1470.646118164062	47.66881942749023	-821.7754516601562	1333.924438476562	-9.146397590637207	-817.3580322265625	1115.804565429688	-3.798084259033203	-846.8825073242188	1107.716064453125	79.58930206298828	-700.2927856445312	887.8505249023438	16.57275581359863	-789.7929077148438	861.8788452148438	6.496676921844482	-807.6866455078125	1003.944702148438	-8.790599822998047	-671.6873779296875	707.6820068359375	51.57375335693359	-764.9205932617188	792.8882446289062	10.83673191070557	-693.9624633789062	807.2780151367188	1.409341335296631	-751.454345703125	1509.7021484375	406.9925537109375	-769.7152099609375	1447.470947265625	480.7591857910156	-795.8055419921875	1163.02197265625	554.89501953125	-803.3698120117188	1149.075073242188	456.7934875488281	-640.1220092773438	946.9586791992188	541.2301025390625	-711.5560913085938	923.9389038085938	589.2954711914062	-767.1525268554688	1091.499145507812	575.86962890625	-609.8609008789062	763.2597045898438	517.7599487304688	-604.5709228515625	856.7327880859375	552.1608276367188	-677.2952880859375	843.5621948242188	588.2874145507812	-761.7606811523438	1682.947021484375	292.0589294433594	-621.1348266601562	1727.94677734375	132.1861267089844	-599.0203857421875	1736.14599609375	260.060791015625	-792.41845703125	1681.666748046875	157.2759857177734	-799.4185791015625	1004.735168457031	82.05171966552734	-735.1000366210938	1004.148803710938	449.6635131835938	-656.607421875	1034.298095703125	391.2181091308594	-673.015625	1037.4833984375	134.0574493408203	-590.6228637695312	531.0667724609375	92.26899719238281	-650.0569458007812	666.2152099609375	67.07028198242188	-614.3623657226562	48.55499649047852	98.98670959472656	-603.2700805664062	296.0644836425781	80.54743194580078	-403.4478149414062	93.03951263427734	83.03141021728516	-440.8192749023438	87.25817108154297	139.3382263183594	-514.0764770507812	51.02119064331055	43.92065048217773	-652.0083618164062	49.58923721313477	176.6550598144531	-750.3934936523438	502.8799743652344	392.2353515625	-694.6546630859375	768.1686401367188	439.16650390625	-911.924072265625	36.22337341308594	358.7842712402344	-754.748291015625	379.5706787109375	369.2337036132812	-690.171142578125	53.57172012329102	350.4342956542969	-736.4688110351562	41.91315460205078	301.0994567871094	-804.8352661132812	37.70280838012695	406.7072448730469	-955.1537475585938	35.81005096435547	283.3181762695312	
436	4.350000000000001	-889.797119140625	1061.699340820312	328.6651000976562	-898.6428833007812	1064.091674804688	207.2678375244141	-888.9357299804688	1103.72021484375	271.5652160644531	-615.7754516601562	1294.543823242188	240.0725708007812	-908.411865234375	1261.63525390625	264.1294250488281	-831.1124877929688	1525.801147460938	230.8911743164062	-638.9893188476562	1408.846801757812	224.7268524169922	-897.44287109375	1360.92236328125	354.7668762207031	-848.5254516601562	1494.208862304688	132.3976287841797	-781.0536499023438	1471.504516601562	48.18026351928711	-826.98486328125	1334.6357421875	-8.504005432128906	-822.34912109375	1116.524291992188	-2.913132190704346	-851.0261840820312	1108.3662109375	80.73816680908203	-704.4795532226562	888.8328857421875	15.78732299804688	-794.2308349609375	862.64599609375	7.452696323394775	-812.6328735351562	1004.635009765625	-7.94541072845459	-674.9517822265625	708.745849609375	50.48246383666992	-769.1556396484375	793.7012939453125	11.53812122344971	-698.4920043945312	808.1870727539062	0.6123065948486328	-756.1693725585938	1510.474731445312	407.5127868652344	-774.416015625	1448.31201171875	481.2858276367188	-801.571533203125	1163.9609375	555.0503540039062	-808.9349365234375	1150.07470703125	456.8503723144531	-648.093505859375	946.265380859375	542.104736328125	-719.971435546875	924.1421508789062	590.074462890625	-773.6348266601562	1092.300415039062	576.1641845703125	-620.1663208007812	762.12255859375	518.7803344726562	-613.7713012695312	855.5311889648438	553.1570434570312	-686.74462890625	843.298828125	589.2009887695312	-766.7578735351562	1684.089599609375	292.5389099121094	-625.8031005859375	1728.891357421875	132.8871917724609	-603.8206176757812	1736.93212890625	260.7892456054688	-797.2015991210938	1682.970092773438	157.675537109375	-802.72412109375	1005.740112304688	82.26634216308594	-738.8789672851562	1004.668518066406	449.9361572265625	-660.2244262695312	1035.114990234375	391.7838439941406	-675.8851318359375	1038.721801757812	134.6699066162109	-593.4761352539062	531.8634643554688	91.8670654296875	-652.3316040039062	667.52197265625	67.18931579589844	-627.3212280273438	49.60575485229492	98.09197998046875	-611.0374145507812	296.8764038085938	79.87569427490234	-415.6650085449219	90.96063995361328	83.18551635742188	-453.28369140625	85.52529144287109	139.2574920654297	-526.6771240234375	50.59385681152344	43.47480392456055	-665.302978515625	51.20840072631836	175.5752105712891	-752.7872924804688	503.5277099609375	392.263916015625	-698.0050048828125	768.8231811523438	439.4389038085938	-912.0478515625	36.17263031005859	358.7697448730469	-756.5801391601562	380.2159118652344	369.2719116210938	-690.37255859375	53.78920364379883	350.4935607910156	-736.665283203125	42.0369987487793	301.0906982421875	-804.9855346679688	37.8006706237793	406.6702575683594	-955.3171997070312	35.68680572509766	283.2991638183594	
